<svg xmlns="http://www.w3.org/2000/svg" viewBox="0 0 1280 720">
  <!-- 底色 -->
  <rect width="1280" height="720" fill="#FFFFFF"/>
  <rect x="430" y="0" width="850" height="720" fill="#EEF7FF"/>
  <rect x="782" y="274" width="498" height="446" fill="#D8EBFE" fill-opacity="0.18"/>
  <rect x="0" y="0" width="660" height="280" fill="#FFFFFF" fill-opacity="0.92"/>
  <!-- 右上 Logo 胶囊 -->
  <rect x="1016" y="28" width="208" height="52" rx="26" fill="#FFFFFF" fill-opacity="0.92" stroke="#C7DCF7" stroke-width="1"/>
  <rect x="1016" y="28" width="208" height="52" rx="26" fill="#EEF7FF" fill-opacity="0.72"/>
  <image x="1047" y="30" width="146" height="48" href="fanruan_logo.png" preserveAspectRatio="xMidYMid meet"/>
  <!-- 标题区 -->
  <rect x="60" y="62" width="4" height="54" rx="2" fill="#3399FF"/>
  <text x="84" y="88" font-family="Microsoft YaHei, PingFang SC, sans-serif" font-size="26" font-weight="bold" fill="#035DCF">{{PAGE_TITLE}}</text>
  <text x="84" y="120" font-family="Microsoft YaHei, PingFang SC, sans-serif" font-size="15" fill="#566280">{{PAGE_SUBTITLE}}</text>
  <rect x="84" y="138" width="176" height="4" rx="2" fill="#3399FF" fill-opacity="0.18"/>
  <rect x="84" y="138" width="86" height="4" rx="2" fill="#035DCF"/>
  <!-- 架构分层：左侧层级标签，右侧逐层内容 -->
  <!-- 应用层 -->
  <rect x="56" y="192" width="150" height="84" rx="10" fill="#66CCFF"/>
  <text x="131" y="240" font-family="Microsoft YaHei, PingFang SC, sans-serif" font-size="16" font-weight="bold" fill="#FFFFFF" text-anchor="middle">{{LAYER1_TITLE}}</text>
  <rect x="222" y="192" width="157" height="84" rx="8" fill="#FFFFFF" fill-opacity="0.9" stroke="#DDEBFA" stroke-width="1"/>
  <text x="300" y="240" font-family="Microsoft YaHei, PingFang SC, sans-serif" font-size="14" fill="#566280" text-anchor="middle">{{APP_1}}</text>
  <rect x="391" y="192" width="157" height="84" rx="8" fill="#FFFFFF" fill-opacity="0.9" stroke="#DDEBFA" stroke-width="1"/>
  <text x="469" y="240" font-family="Microsoft YaHei, PingFang SC, sans-serif" font-size="14" fill="#566280" text-anchor="middle">{{APP_2}}</text>
  <rect x="560" y="192" width="157" height="84" rx="8" fill="#FFFFFF" fill-opacity="0.9" stroke="#DDEBFA" stroke-width="1"/>
  <text x="638" y="240" font-family="Microsoft YaHei, PingFang SC, sans-serif" font-size="14" fill="#566280" text-anchor="middle">{{APP_3}}</text>
  <rect x="729" y="192" width="157" height="84" rx="8" fill="#FFFFFF" fill-opacity="0.9" stroke="#DDEBFA" stroke-width="1"/>
  <text x="807" y="240" font-family="Microsoft YaHei, PingFang SC, sans-serif" font-size="14" fill="#566280" text-anchor="middle">{{APP_4}}</text>
  <rect x="898" y="192" width="157" height="84" rx="8" fill="#FFFFFF" fill-opacity="0.9" stroke="#DDEBFA" stroke-width="1"/>
  <text x="976" y="240" font-family="Microsoft YaHei, PingFang SC, sans-serif" font-size="14" fill="#566280" text-anchor="middle">{{APP_5}}</text>
  <rect x="1067" y="192" width="157" height="84" rx="8" fill="#FFFFFF" fill-opacity="0.9" stroke="#DDEBFA" stroke-width="1"/>
  <text x="1145" y="240" font-family="Microsoft YaHei, PingFang SC, sans-serif" font-size="14" fill="#566280" text-anchor="middle">{{APP_6}}</text>
  <!-- 平台层 -->
  <rect x="56" y="288" width="150" height="120" rx="10" fill="#66B3FF"/>
  <text x="131" y="354" font-family="Microsoft YaHei, PingFang SC, sans-serif" font-size="16" font-weight="bold" fill="#FFFFFF" text-anchor="middle">{{LAYER2_TITLE}}</text>
  <rect x="222" y="288" width="240" height="120" rx="10" fill="#EEF7FF" stroke="#DDEBFA" stroke-width="1"/>
  <text x="242" y="324" font-family="Microsoft YaHei, PingFang SC, sans-serif" font-size="15" font-weight="bold" fill="#17346E">{{PLATFORM1_TITLE}}</text>
  <text x="242" y="354" font-family="Microsoft YaHei, PingFang SC, sans-serif" font-size="12.5" fill="#566280">{{PLATFORM1_DESC_1}}</text>
  <text x="242" y="380" font-family="Microsoft YaHei, PingFang SC, sans-serif" font-size="12.5" fill="#566280">{{PLATFORM1_DESC_2}}</text>
  <rect x="476" y="288" width="240" height="120" rx="10" fill="#EEF7FF" stroke="#DDEBFA" stroke-width="1"/>
  <text x="496" y="324" font-family="Microsoft YaHei, PingFang SC, sans-serif" font-size="15" font-weight="bold" fill="#17346E">{{PLATFORM2_TITLE}}</text>
  <text x="496" y="354" font-family="Microsoft YaHei, PingFang SC, sans-serif" font-size="12.5" fill="#566280">{{PLATFORM2_DESC_1}}</text>
  <text x="496" y="380" font-family="Microsoft YaHei, PingFang SC, sans-serif" font-size="12.5" fill="#566280">{{PLATFORM2_DESC_2}}</text>
  <rect x="730" y="288" width="240" height="120" rx="10" fill="#EEF7FF" stroke="#DDEBFA" stroke-width="1"/>
  <text x="750" y="324" font-family="Microsoft YaHei, PingFang SC, sans-serif" font-size="15" font-weight="bold" fill="#17346E">{{PLATFORM3_TITLE}}</text>
  <text x="750" y="354" font-family="Microsoft YaHei, PingFang SC, sans-serif" font-size="12.5" fill="#566280">{{PLATFORM3_DESC_1}}</text>
  <text x="750" y="380" font-family="Microsoft YaHei, PingFang SC, sans-serif" font-size="12.5" fill="#566280">{{PLATFORM3_DESC_2}}</text>
  <rect x="984" y="288" width="240" height="120" rx="10" fill="#EEF7FF" stroke="#DDEBFA" stroke-width="1"/>
  <text x="1004" y="324" font-family="Microsoft YaHei, PingFang SC, sans-serif" font-size="15" font-weight="bold" fill="#17346E">{{PLATFORM4_TITLE}}</text>
  <text x="1004" y="354" font-family="Microsoft YaHei, PingFang SC, sans-serif" font-size="12.5" fill="#566280">{{PLATFORM4_DESC_1}}</text>
  <text x="1004" y="380" font-family="Microsoft YaHei, PingFang SC, sans-serif" font-size="12.5" fill="#566280">{{PLATFORM4_DESC_2}}</text>
  <!-- 数据层 -->
  <rect x="56" y="420" width="150" height="148" rx="10" fill="#3399FF"/>
  <text x="131" y="500" font-family="Microsoft YaHei, PingFang SC, sans-serif" font-size="16" font-weight="bold" fill="#FFFFFF" text-anchor="middle">{{LAYER3_TITLE}}</text>
  <rect x="222" y="420" width="1002" height="148" rx="10" fill="#D8EBFE" fill-opacity="0.3" stroke="#DDEBFA" stroke-width="1"/>
  <rect x="234" y="432" width="318" height="60" rx="8" fill="#FFFFFF" fill-opacity="0.92"/>
  <text x="393" y="468" font-family="Microsoft YaHei, PingFang SC, sans-serif" font-size="13" fill="#566280" text-anchor="middle">{{DATA_1}}</text>
  <rect x="564" y="432" width="318" height="60" rx="8" fill="#FFFFFF" fill-opacity="0.92"/>
  <text x="723" y="468" font-family="Microsoft YaHei, PingFang SC, sans-serif" font-size="13" fill="#566280" text-anchor="middle">{{DATA_2}}</text>
  <rect x="894" y="432" width="318" height="60" rx="8" fill="#FFFFFF" fill-opacity="0.92"/>
  <text x="1053" y="468" font-family="Microsoft YaHei, PingFang SC, sans-serif" font-size="13" fill="#566280" text-anchor="middle">{{DATA_3}}</text>
  <rect x="234" y="496" width="318" height="60" rx="8" fill="#FFFFFF" fill-opacity="0.92"/>
  <text x="393" y="532" font-family="Microsoft YaHei, PingFang SC, sans-serif" font-size="13" fill="#566280" text-anchor="middle">{{DATA_4}}</text>
  <rect x="564" y="496" width="318" height="60" rx="8" fill="#FFFFFF" fill-opacity="0.92"/>
  <text x="723" y="532" font-family="Microsoft YaHei, PingFang SC, sans-serif" font-size="13" fill="#566280" text-anchor="middle">{{DATA_5}}</text>
  <rect x="894" y="496" width="318" height="60" rx="8" fill="#FFFFFF" fill-opacity="0.92"/>
  <text x="1053" y="532" font-family="Microsoft YaHei, PingFang SC, sans-serif" font-size="13" fill="#566280" text-anchor="middle">{{DATA_6}}</text>
  <!-- 基础层 -->
  <rect x="56" y="580" width="150" height="64" rx="10" fill="#035DCF"/>
  <text x="131" y="618" font-family="Microsoft YaHei, PingFang SC, sans-serif" font-size="16" font-weight="bold" fill="#FFFFFF" text-anchor="middle">{{LAYER4_TITLE}}</text>
  <rect x="222" y="580" width="1002" height="64" rx="10" fill="#FFFFFF" fill-opacity="0.9" stroke="#DDEBFA" stroke-width="1"/>
  <text x="322" y="618" font-family="Microsoft YaHei, PingFang SC, sans-serif" font-size="13" fill="#566280" text-anchor="middle">{{BASE_1}}</text>
  <line x1="422" y1="592" x2="422" y2="632" stroke="#DDEBFA" stroke-width="1"/>
  <text x="522" y="618" font-family="Microsoft YaHei, PingFang SC, sans-serif" font-size="13" fill="#566280" text-anchor="middle">{{BASE_2}}</text>
  <line x1="622" y1="592" x2="622" y2="632" stroke="#DDEBFA" stroke-width="1"/>
  <text x="722" y="618" font-family="Microsoft YaHei, PingFang SC, sans-serif" font-size="13" fill="#566280" text-anchor="middle">{{BASE_3}}</text>
  <line x1="822" y1="592" x2="822" y2="632" stroke="#DDEBFA" stroke-width="1"/>
  <text x="922" y="618" font-family="Microsoft YaHei, PingFang SC, sans-serif" font-size="13" fill="#566280" text-anchor="middle">{{BASE_4}}</text>
  <line x1="1022" y1="592" x2="1022" y2="632" stroke="#DDEBFA" stroke-width="1"/>
  <text x="1122" y="618" font-family="Microsoft YaHei, PingFang SC, sans-serif" font-size="13" fill="#566280" text-anchor="middle">{{BASE_5}}</text>
  <!-- 底部框架标注 + 页码 -->
  <text x="84" y="700" font-family="Arial, sans-serif" font-size="12" fill="#8F99B3" letter-spacing="1.6">FANRUAN LIGHT TECH FRAME</text>
  <rect x="1144" y="682" width="74" height="28" rx="14" fill="#035DCF" fill-opacity="0.09"/>
  <text x="1181" y="701" font-family="Arial, sans-serif" font-size="14" font-weight="bold" fill="#035DCF" text-anchor="middle">{{PAGE_NUMBER}}</text>
</svg>
