<svg xmlns="http://www.w3.org/2000/svg" viewBox="0 0 1280 720">
  <!-- 底色 -->
  <rect width="1280" height="720" fill="#FFFFFF"/>
  <rect x="430" y="0" width="850" height="720" fill="#EEF7FF"/>
  <rect x="782" y="274" width="498" height="446" fill="#D8EBFE" fill-opacity="0.18"/>
  <rect x="0" y="0" width="660" height="280" fill="#FFFFFF" fill-opacity="0.92"/>
  <!-- 右上 Logo 胶囊 -->
  <rect x="1016" y="28" width="208" height="52" rx="26" fill="#FFFFFF" fill-opacity="0.92" stroke="#C7DCF7" stroke-width="1"/>
  <rect x="1016" y="28" width="208" height="52" rx="26" fill="#EEF7FF" fill-opacity="0.72"/>
  <image x="1047" y="30" width="146" height="48" href="fanruan_logo.png" preserveAspectRatio="xMidYMid meet"/>
  <!-- 标题区 -->
  <rect x="60" y="62" width="4" height="54" rx="2" fill="#3399FF"/>
  <text x="84" y="88" font-family="Microsoft YaHei, PingFang SC, sans-serif" font-size="26" font-weight="bold" fill="#035DCF">{{PAGE_TITLE}}</text>
  <text x="84" y="120" font-family="Microsoft YaHei, PingFang SC, sans-serif" font-size="15" fill="#566280">{{PAGE_SUBTITLE}}</text>
  <rect x="84" y="138" width="176" height="4" rx="2" fill="#3399FF" fill-opacity="0.18"/>
  <rect x="84" y="138" width="86" height="4" rx="2" fill="#035DCF"/>
  <!-- Before / After 栏头 -->
  <text x="300" y="186" font-family="Arial, sans-serif" font-size="20" font-weight="bold" fill="#566280" text-anchor="middle">Before</text>
  <text x="956" y="186" font-family="Arial, sans-serif" font-size="20" font-weight="bold" fill="#3399FF" text-anchor="middle">After</text>
  <!-- 第一行 -->
  <rect x="56" y="202" width="488" height="140" rx="12" fill="#ECF1F5"/>
  <rect x="56" y="202" width="488" height="30" rx="12" fill="#DDE5ED"/>
  <rect x="56" y="220" width="488" height="12" fill="#ECF1F5"/>
  <text x="76" y="223" font-family="Microsoft YaHei, PingFang SC, sans-serif" font-size="14" font-weight="bold" fill="#566280">{{LEFT_TAG_1}}</text>
  <text x="76" y="262" font-family="Microsoft YaHei, PingFang SC, sans-serif" font-size="12.5" fill="#566280">{{LEFT_TEXT_1_1}}</text>
  <text x="76" y="288" font-family="Microsoft YaHei, PingFang SC, sans-serif" font-size="12.5" fill="#566280">{{LEFT_TEXT_1_2}}</text>
  <text x="76" y="314" font-family="Microsoft YaHei, PingFang SC, sans-serif" font-size="12.5" fill="#566280">{{LEFT_TEXT_1_3}}</text>
  <path d="M 568 262 L 612 262 L 612 250 L 640 272 L 612 294 L 612 282 L 568 282 Z" fill="#66B3FF" fill-opacity="0.75"/>
  <rect x="664" y="202" width="560" height="140" rx="12" fill="#E6F3FF"/>
  <rect x="664" y="202" width="560" height="30" rx="12" fill="#3399FF"/>
  <rect x="664" y="220" width="560" height="12" fill="#E6F3FF"/>
  <text x="684" y="223" font-family="Microsoft YaHei, PingFang SC, sans-serif" font-size="14" font-weight="bold" fill="#FFFFFF">{{RIGHT_TAG_1}}</text>
  <text x="684" y="262" font-family="Microsoft YaHei, PingFang SC, sans-serif" font-size="12.5" fill="#17346E">{{RIGHT_TEXT_1_1}}</text>
  <text x="684" y="288" font-family="Microsoft YaHei, PingFang SC, sans-serif" font-size="12.5" fill="#17346E">{{RIGHT_TEXT_1_2}}</text>
  <text x="684" y="314" font-family="Microsoft YaHei, PingFang SC, sans-serif" font-size="12.5" fill="#17346E">{{RIGHT_TEXT_1_3}}</text>
  <!-- 第二行 -->
  <rect x="56" y="358" width="488" height="140" rx="12" fill="#ECF1F5"/>
  <rect x="56" y="358" width="488" height="30" rx="12" fill="#DDE5ED"/>
  <rect x="56" y="376" width="488" height="12" fill="#ECF1F5"/>
  <text x="76" y="379" font-family="Microsoft YaHei, PingFang SC, sans-serif" font-size="14" font-weight="bold" fill="#566280">{{LEFT_TAG_2}}</text>
  <text x="76" y="418" font-family="Microsoft YaHei, PingFang SC, sans-serif" font-size="12.5" fill="#566280">{{LEFT_TEXT_2_1}}</text>
  <text x="76" y="444" font-family="Microsoft YaHei, PingFang SC, sans-serif" font-size="12.5" fill="#566280">{{LEFT_TEXT_2_2}}</text>
  <text x="76" y="470" font-family="Microsoft YaHei, PingFang SC, sans-serif" font-size="12.5" fill="#566280">{{LEFT_TEXT_2_3}}</text>
  <path d="M 568 418 L 612 418 L 612 406 L 640 428 L 612 450 L 612 438 L 568 438 Z" fill="#66B3FF" fill-opacity="0.75"/>
  <rect x="664" y="358" width="560" height="140" rx="12" fill="#E6F3FF"/>
  <rect x="664" y="358" width="560" height="30" rx="12" fill="#3399FF"/>
  <rect x="664" y="376" width="560" height="12" fill="#E6F3FF"/>
  <text x="684" y="379" font-family="Microsoft YaHei, PingFang SC, sans-serif" font-size="14" font-weight="bold" fill="#FFFFFF">{{RIGHT_TAG_2}}</text>
  <text x="684" y="418" font-family="Microsoft YaHei, PingFang SC, sans-serif" font-size="12.5" fill="#17346E">{{RIGHT_TEXT_2_1}}</text>
  <text x="684" y="444" font-family="Microsoft YaHei, PingFang SC, sans-serif" font-size="12.5" fill="#17346E">{{RIGHT_TEXT_2_2}}</text>
  <text x="684" y="470" font-family="Microsoft YaHei, PingFang SC, sans-serif" font-size="12.5" fill="#17346E">{{RIGHT_TEXT_2_3}}</text>
  <!-- 第三行 -->
  <rect x="56" y="514" width="488" height="140" rx="12" fill="#ECF1F5"/>
  <rect x="56" y="514" width="488" height="30" rx="12" fill="#DDE5ED"/>
  <rect x="56" y="532" width="488" height="12" fill="#ECF1F5"/>
  <text x="76" y="535" font-family="Microsoft YaHei, PingFang SC, sans-serif" font-size="14" font-weight="bold" fill="#566280">{{LEFT_TAG_3}}</text>
  <text x="76" y="574" font-family="Microsoft YaHei, PingFang SC, sans-serif" font-size="12.5" fill="#566280">{{LEFT_TEXT_3_1}}</text>
  <text x="76" y="600" font-family="Microsoft YaHei, PingFang SC, sans-serif" font-size="12.5" fill="#566280">{{LEFT_TEXT_3_2}}</text>
  <text x="76" y="626" font-family="Microsoft YaHei, PingFang SC, sans-serif" font-size="12.5" fill="#566280">{{LEFT_TEXT_3_3}}</text>
  <path d="M 568 574 L 612 574 L 612 562 L 640 584 L 612 606 L 612 594 L 568 594 Z" fill="#66B3FF" fill-opacity="0.75"/>
  <rect x="664" y="514" width="560" height="140" rx="12" fill="#E6F3FF"/>
  <rect x="664" y="514" width="560" height="30" rx="12" fill="#3399FF"/>
  <rect x="664" y="532" width="560" height="12" fill="#E6F3FF"/>
  <text x="684" y="535" font-family="Microsoft YaHei, PingFang SC, sans-serif" font-size="14" font-weight="bold" fill="#FFFFFF">{{RIGHT_TAG_3}}</text>
  <text x="684" y="574" font-family="Microsoft YaHei, PingFang SC, sans-serif" font-size="12.5" fill="#17346E">{{RIGHT_TEXT_3_1}}</text>
  <text x="684" y="600" font-family="Microsoft YaHei, PingFang SC, sans-serif" font-size="12.5" fill="#17346E">{{RIGHT_TEXT_3_2}}</text>
  <text x="684" y="626" font-family="Microsoft YaHei, PingFang SC, sans-serif" font-size="12.5" fill="#17346E">{{RIGHT_TEXT_3_3}}</text>
  <!-- 底部框架标注 + 页码 -->
  <text x="84" y="700" font-family="Arial, sans-serif" font-size="12" fill="#8F99B3" letter-spacing="1.6">FANRUAN LIGHT TECH FRAME</text>
  <rect x="1144" y="682" width="74" height="28" rx="14" fill="#035DCF" fill-opacity="0.09"/>
  <text x="1181" y="701" font-family="Arial, sans-serif" font-size="14" font-weight="bold" fill="#035DCF" text-anchor="middle">{{PAGE_NUMBER}}</text>
</svg>
